<svg xmlns="http://www.w3.org/2000/svg" width="32" height="32" viewBox="0 0 32 32"><radialGradient id="a" cx="16" cy="16" r="16" gradientUnits="userSpaceOnUse"><stop offset="0%" stop-color="#feda75"/><stop offset="50%" stop-color="#fa7e1e"/><stop offset="100%" stop-color="#d62976"/></radialGradient><circle cx="16" cy="16" r="16" fill="url(#a)"/><path d="M22 10.5a3.5 3.5 0 0 0-3.5-3.5h-5A3.5 3.5 0 0 0 10 10.5v5a3.5 3.5 0 0 0 3.5 3.5h5a3.5 3.5 0 0 0 3.5-3.5v-5zm-1.5 0a2 2 0 0 1-2 2h-5a2 2 0 0 1-2-2v-5a2 2 0 0 1 2-2h5a2 2 0 0 1 2 2v5z" fill="#fff"/><circle cx="16" cy="16" r="3.5" fill="#fff"/></svg>
