<svg xmlns="http://www.w3.org/2000/svg" width="32" height="32" viewBox="0 0 32 32"><circle cx="16" cy="16" r="16" fill="#1da1f2"/><path d="M25.6 10.1c-.6.3-1.2.5-1.8.6.7-.4 1.2-1 1.5-1.7-.7.4-1.4.7-2.1.9-.7-.7-1.7-1.1-2.7-1.1-2.1 0-3.7 2-3.2 4.1-2.7-.1-5.1-1.4-6.7-3.5-.3.5-.4 1-.4 1.6 0 1.1.6 2.1 1.5 2.7-.6 0-1.1-.2-1.6-.4 0 1.6 1.1 2.9 2.6 3.2-.5.1-1 .2-1.5.1.4 1.3 1.6 2.2 3 2.2-1.1.9-2.5 1.4-4 1.4-.3 0-.6 0-.9-.1 1.4.9 3.1 1.5 4.9 1.5 5.9 0 9.1-4.9 9.1-9.1v-.4c.6-.4 1.1-1 1.5-1.6z" fill="#fff"/></svg>
